<?xml version="1.0" encoding="UTF-8"?>
<svg id="Layer_1" data-name="Layer 1" xmlns="http://www.w3.org/2000/svg" viewBox="0 0 419.39 363.21">
  <line x1="419.39" y1="0" x2="397.5" y2="37.91" style="fill: #231f20;"/>
  <line x1="50.38" y1="87.26" x2="50.36" y2="87.25" style="fill: #231f20;"/>
  <line x1="184.4" y1="319.39" x2="184.39" y2="319.38" style="fill: #231f20;"/>
  <line x1="0" y1=".02" y2="0" style="fill: #231f20;"/>
  <line x1="103.87" y1="92.27" x2="75.9" y2="43.83" style="fill: #231f20;"/>
  <path d="M419.38,0l-21.88,37.91-3.42,5.92-18.53,32.09-9.43,16.35h-50.19l-.29-.17,21.98-38.08,5.88-10.19h-111.91v109.61l-43.82-17.95V43.83h-111.91l5.87,10.16,22.07,38.23-.09.05h.16l12.77,22.12,64.58,26.45,6.55,2.68,43.82,17.94,6.55,2.69,29.03,11.88,13.62,5.58,27.3,11.18-22.11,38.3-10.47,18.12-21.91,37.95-.03.06-18.58,32.18-3.33,5.77h0c-7.3,12.66-14.6,25.29-21.9,37.94-.02.03-.04.07-.06.1l-25.3-43.82h0s0-.02,0-.02h-.01s-18.6-32.22-18.6-32.22l-21.89-37.93h50.58l1.6,2.78,7.64,13.25.05.08,5.92,10.24c1.98-3.42,3.95-6.84,5.93-10.26-1.98,3.42-3.95,6.84-5.93,10.26,4.25-7.36,8.49-14.71,12.74-22.07l2.48-4.28.8-1.39,11.85-20.53.58-.99,3.65-6.32,3.26-5.66-6.91-2.83-6.55-2.68-21.89-8.97-21.93-8.98-6.55-2.68-16.07-6.58-12.71-5.2h0s-48.21-19.75-48.21-19.75l-18.05-7.39-20.3-35.16-12.61-21.84-2.89-5.01-6.57-11.38-18.5-32.05h-.01l-3.39-5.88L.01.02l.02-.02h419.35Z" style="fill: #231f20;"/>
  <line x1="343.49" y1="43.83" x2="315.53" y2="92.27" style="fill: #231f20;"/>
  <polygon points="21.91 37.95 21.9 37.95 0 .02 .01 .02 21.91 37.95" style="fill: #231f20;"/>
  <polygon points="25.3 43.83 21.9 37.95 21.91 37.95 25.3 43.83" style="fill: #231f20;"/>
  <polygon points="43.81 75.88 43.8 75.88 25.3 43.83 25.31 43.83 43.81 75.88" style="fill: #231f20;"/>
  <polygon points="65.88 114.11 65.87 114.12 50.36 87.25 43.8 75.88 43.81 75.88 50.38 87.26 53.27 92.27 65.88 114.11" style="fill: #231f20;"/>
  <polygon points="231.59 215.81 231.59 224.57 224.07 237.6 220.05 244.56 220.04 244.56 217.34 249.22 216.76 250.23 216.77 250.24 209.7 262.49 202.04 249.22 201.75 248.73 198.48 243.06 195.33 237.6 187.77 224.5 187.77 197.87 231.59 215.81" style="fill: #231f20;"/>
  <polygon points="220.05 244.56 217.36 249.22 216.77 250.24 216.76 250.23 217.34 249.22 220.04 244.56 220.05 244.56" style="fill: #231f20;"/>
  <line x1="231.59" y1="215.81" x2="187.77" y2="197.87" style="fill: #231f20;"/>
</svg>